HIERARCHY
ROOT __0
{
	OFFSET 0.0 0.0 0.0
	CHANNELS 0
	JOINT hip
	{
		OFFSET 0.000000 -0.026249 1.054178
		CHANNELS 6 Xposition Yposition Zposition Xrotation Yrotation Zrotation
		JOINT spine
		{
			OFFSET 0.000000 0.011931 0.284082
			CHANNELS 3 Xrotation Yrotation Zrotation
			JOINT spine.001
			{
				OFFSET -0.000000 -0.031022 0.207850
				CHANNELS 3 Xrotation Yrotation Zrotation
				JOINT head
				{
					OFFSET 0.000000 0.045339 0.397661
					CHANNELS 3 Xrotation Yrotation Zrotation
					End Site
					{
						OFFSET 0.000000 0.000000 0.381644
					}
				}
				JOINT collar.L
				{
					OFFSET 0.000000 0.045339 0.397661
					CHANNELS 6 Xposition Yposition Zposition Xrotation Yrotation Zrotation
					JOINT shoulder.L
					{
						OFFSET -0.153096 0.000000 -0.089998
						CHANNELS 3 Xrotation Yrotation Zrotation
						JOINT UpperArm.L
						{
							OFFSET -0.183743 -0.000000 -0.064430
							CHANNELS 3 Xrotation Yrotation Zrotation
							JOINT LowerArm.L
							{
								OFFSET -0.309376 -0.063903 0.003301
								CHANNELS 3 Xrotation Yrotation Zrotation
								JOINT hand.L
								{
									OFFSET -0.294414 0.041948 -0.010574
									CHANNELS 3 Xrotation Yrotation Zrotation
									End Site
									{
										OFFSET -0.146658 -0.004199 -0.006440
									}
								}
							}
						}
					}
				}
				JOINT collar.R
				{
					OFFSET 0.000000 0.045339 0.397661
					CHANNELS 6 Xposition Yposition Zposition Xrotation Yrotation Zrotation
					JOINT shoulder.R
					{
						OFFSET 0.153096 0.000000 -0.089998
						CHANNELS 3 Xrotation Yrotation Zrotation
						JOINT UpperArm.R
						{
							OFFSET 0.183743 -0.000000 -0.064430
							CHANNELS 3 Xrotation Yrotation Zrotation
							JOINT LowerArm.R
							{
								OFFSET 0.309376 -0.063903 0.003301
								CHANNELS 3 Xrotation Yrotation Zrotation
								JOINT hand.R
								{
									OFFSET 0.294414 0.041948 -0.010574
									CHANNELS 3 Xrotation Yrotation Zrotation
									End Site
									{
										OFFSET 0.146658 -0.004199 -0.006440
									}
								}
							}
						}
					}
				}
			}
		}
		JOINT UpperLeg.L
		{
			OFFSET -0.157494 -0.002928 -0.153431
			CHANNELS 6 Xposition Yposition Zposition Xrotation Yrotation Zrotation
			JOINT LowerLeg.L
			{
				OFFSET -0.028635 0.043215 -0.458015
				CHANNELS 3 Xrotation Yrotation Zrotation
				JOINT Foot.L
				{
					OFFSET -0.021900 -0.057668 -0.375839
					CHANNELS 3 Xrotation Yrotation Zrotation
					End Site
					{
						OFFSET -0.008760 0.234651 -0.027840
					}
				}
			}
		}
		JOINT UpperLeg.R
		{
			OFFSET 0.157494 -0.002928 -0.153431
			CHANNELS 6 Xposition Yposition Zposition Xrotation Yrotation Zrotation
			JOINT LowerLeg.R
			{
				OFFSET 0.028635 0.043215 -0.458015
				CHANNELS 3 Xrotation Yrotation Zrotation
				JOINT Foot.R
				{
					OFFSET 0.021900 -0.057668 -0.375839
					CHANNELS 3 Xrotation Yrotation Zrotation
					End Site
					{
						OFFSET 0.008760 0.234651 -0.027840
					}
				}
			}
		}
	}
	JOINT IKPole.L
	{
		OFFSET -0.186129 0.631578 0.633967
		CHANNELS 6 Xposition Yposition Zposition Xrotation Yrotation Zrotation
		End Site
		{
			OFFSET 0.000000 0.335215 0.000000
		}
	}
	JOINT IKTagetLeg.L
	{
		OFFSET -0.205840 -0.043631 0.066894
		CHANNELS 6 Xposition Yposition Zposition Xrotation Yrotation Zrotation
		End Site
		{
			OFFSET 0.000000 -0.219538 0.026249
		}
	}
	JOINT IKPole.R
	{
		OFFSET 0.186129 0.631578 0.633967
		CHANNELS 6 Xposition Yposition Zposition Xrotation Yrotation Zrotation
		End Site
		{
			OFFSET 0.000000 0.335215 0.000000
		}
	}
	JOINT IKTagetLeg.R
	{
		OFFSET 0.205840 -0.043631 0.066894
		CHANNELS 6 Xposition Yposition Zposition Xrotation Yrotation Zrotation
		End Site
		{
			OFFSET 0.000000 -0.219538 0.026249
		}
	}
	JOINT IKArmPole.L
	{
		OFFSET -0.484735 -0.309871 1.764236
		CHANNELS 6 Xposition Yposition Zposition Xrotation Yrotation Zrotation
		End Site
		{
			OFFSET 0.000000 -0.320193 0.000000
		}
	}
	JOINT IKArmTarget.L
	{
		OFFSET -0.940628 -0.021955 1.782071
		CHANNELS 6 Xposition Yposition Zposition Xrotation Yrotation Zrotation
		End Site
		{
			OFFSET -0.302490 0.000000 0.000000
		}
	}
	JOINT IKArmPole.R
	{
		OFFSET 0.484735 -0.309871 1.764236
		CHANNELS 6 Xposition Yposition Zposition Xrotation Yrotation Zrotation
		End Site
		{
			OFFSET 0.000000 -0.320193 0.000000
		}
	}
	JOINT IKArmTarget.R
	{
		OFFSET 0.940628 -0.021955 1.782071
		CHANNELS 6 Xposition Yposition Zposition Xrotation Yrotation Zrotation
		End Site
		{
			OFFSET 0.302490 0.000000 0.000000
		}
	}
}
MOTION
Frames: 5
Frame Time: 0.041667
-0.000000 -0.028915 1.076552 -4.555039 -0.000000 0.000000 -2.591303 -0.174334 0.634414 -14.034630 0.064477 0.031824 5.810907 0.000002 -0.000000 -0.000000 0.045339 0.397661 0.000001 -0.000000 0.000000 -3.034456 41.308923 -54.850913 80.629919 -24.025950 8.120056 -15.948386 -10.070196 -61.285279 31.725313 18.548265 -6.546785 0.000000 0.045339 0.397661 -15.168537 5.423087 -24.169640 1.774243 -0.222673 -10.725624 -20.044918 19.189796 31.585096 -2.218112 6.424248 52.495465 49.233469 16.721857 35.070149 -0.157494 -0.002929 -0.153431 -56.952440 1.989903 9.919574 -14.261210 -0.349705 0.829441 -61.381298 8.679515 -7.481347 0.157494 -0.002928 -0.153431 56.041371 -2.076124 -6.155608 -30.695543 0.991013 -1.644178 -2.522552 -3.763453 8.459051 -0.215618 0.631599 0.633967 -0.000000 0.000000 -0.000000 -0.214047 -0.806462 0.637633 -137.223582 0.524798 0.472102 0.244884 0.631578 0.642477 -0.000000 0.000000 -0.000000 0.205507 0.417213 0.298245 18.097209 -0.402201 0.393101 -0.542683 -0.165573 1.765330 -0.000000 0.000000 -0.000000 -0.201456 0.733153 1.653775 134.358099 -123.409675 30.639238 0.776210 -0.919408 2.148655 -0.000000 0.000000 -0.000000 0.658687 -0.106830 1.568273 22.848863 75.547554 32.547187 
-0.000000 -0.026249 1.054178 -4.555039 -0.000001 0.000000 -2.591303 -0.174334 0.634414 -14.034630 0.064477 0.031824 5.810907 0.000002 -0.000000 -0.000000 0.045339 0.397662 -0.000000 -0.000000 -0.000000 -9.744306 44.860819 -43.152025 100.677562 -30.500859 12.973365 -15.156210 -9.436597 -53.932458 19.696896 4.673801 -3.089347 0.000000 0.045339 0.397662 -15.168535 5.423088 -24.169642 0.000000 0.000000 0.000004 -13.839797 20.181505 21.843594 -2.731732 6.885748 57.670251 56.202700 14.179688 32.824171 -0.157494 -0.002929 -0.153431 -60.356770 1.077234 9.706045 -11.106208 -0.254702 0.653838 -66.694489 8.240054 -6.756847 0.157494 -0.002928 -0.153431 31.890266 1.026313 -8.538621 13.821015 -0.133747 0.861947 -22.571806 -2.529879 7.720645 -0.208700 0.631578 0.633967 -0.000000 0.000000 -0.000000 -0.205840 -0.818847 0.640059 -142.751855 0.000000 -0.000000 0.253668 0.631578 0.643182 -0.000000 0.000000 -0.000000 0.205840 0.405829 0.186475 18.291788 -0.000000 -0.000000 -0.484735 -0.309871 1.764236 -0.000000 0.000000 -0.000000 -0.245091 0.757244 1.668191 137.108767 -127.406292 34.633369 0.824177 -0.919891 2.149752 -0.000000 0.000000 -0.000000 0.658837 -0.046928 1.531793 39.302698 77.515530 19.684289 
0.000000 -0.030647 0.960100 -4.555039 -0.000001 0.000000 -2.591303 -0.174334 0.634414 -14.034630 0.064477 0.031824 5.810907 0.000002 -0.000000 0.000000 0.045339 0.397662 -0.000000 -0.000000 -0.000000 -14.741959 37.751682 -31.399920 100.417113 -43.330642 44.306993 -16.900919 -10.641258 -69.335573 11.235887 -6.977573 -6.178353 0.000000 0.045339 0.397662 -15.168535 5.423088 -24.169642 -2.553360 -2.003148 12.956302 -10.730934 24.640143 31.274634 -1.631628 5.776756 45.952345 59.522134 4.504827 31.561819 -0.157494 -0.002929 -0.153431 -35.816655 5.382775 7.797880 -56.901661 -2.408913 2.478775 -25.838239 8.162872 -10.536822 0.157494 -0.002928 -0.153431 38.784884 -1.458043 -7.809146 -18.407039 0.488979 -1.051775 -4.935948 -2.739193 8.835742 -0.199812 0.631578 0.633967 -0.000000 0.000000 -0.000000 -0.205839 -0.675363 0.538593 -123.058207 -0.000013 0.000009 0.265313 0.631949 0.638743 -0.000000 0.000000 -0.000000 0.205840 0.289538 0.073378 10.773870 0.000000 0.000002 -0.440950 -0.443568 1.780872 -0.000000 0.000000 -0.000000 -0.352292 0.584432 1.420397 116.489204 -128.911310 31.469694 0.822778 -0.857149 2.144444 -0.000000 0.000000 -0.000000 0.625949 0.072395 1.327832 39.302698 77.515530 19.684289 
0.000000 -0.037148 0.879795 -4.555039 -0.000001 0.000000 -2.591303 -0.174334 0.634414 -14.034630 0.064477 0.031824 5.810907 0.000002 -0.000000 0.000000 0.045339 0.397662 -0.000000 -0.000000 -0.000000 -13.107547 21.998658 -21.543108 68.302670 -60.075264 52.285522 -16.111851 -10.181490 -62.717953 1.711527 -15.111701 -25.539742 0.000000 0.045339 0.397662 -15.168535 5.423088 -24.169642 -4.401268 -6.688030 27.116005 -6.356965 27.648003 44.675922 -0.318386 3.354934 25.270330 65.960892 -0.880138 31.283352 -0.157494 -0.002928 -0.153431 6.543244 6.295841 1.330792 -95.971589 -4.830854 2.387004 11.235607 2.714941 -11.258526 0.157494 -0.002928 -0.153431 38.177551 -4.222999 -5.991573 -54.467214 2.262792 -2.429598 16.537298 -1.677905 10.276504 -0.195157 0.631578 0.633967 -0.000000 0.000000 -0.000000 -0.205840 -0.364726 0.358503 -82.599008 -0.000000 -0.000000 0.271566 0.632319 0.633967 -0.000000 0.000000 -0.000000 0.205840 0.046165 0.039340 -4.188125 0.000000 0.000000 -0.409237 -0.562242 1.824641 -0.000000 0.000000 -0.000000 -0.459994 0.288591 1.172291 95.012747 -127.406292 34.633372 0.819205 -0.695341 2.127672 -0.000000 0.000000 -0.000000 0.555743 0.214624 1.146448 39.302698 77.515530 19.684289 
0.000000 -0.049024 0.918937 -4.555039 -0.000001 0.000000 -2.591303 -0.174334 0.634414 -14.034630 0.064477 0.031824 5.810907 0.000002 -0.000000 -0.000000 0.045339 0.397661 -0.000000 -0.000000 -0.000000 -6.973563 6.605980 -11.303485 22.895023 -59.724581 27.319684 -16.421378 -10.376473 -65.367759 -1.688012 -8.021457 -19.863078 0.000000 0.045339 0.397661 -15.168535 5.423088 -24.169642 -4.555237 -11.564518 41.282391 1.359949 18.349901 27.248633 -1.994246 6.194457 50.093038 67.697044 -26.406295 33.506149 -0.157494 -0.002928 -0.153431 46.337127 2.799399 -1.767458 -89.999934 -4.473738 2.508383 5.590361 0.683954 -5.932602 0.157494 -0.002928 -0.153431 15.383072 -4.093851 -6.447904 -51.255556 2.073471 -2.355314 22.658120 0.165523 10.609580 -0.201417 0.630904 0.633871 -0.000000 0.000000 -0.000000 -0.205840 -0.046978 0.248457 -42.603343 -0.000001 0.000005 0.266276 0.632319 0.633967 -0.000000 0.000000 -0.000000 0.205840 -0.226560 0.077398 -17.437405 0.000000 -0.000009 -0.387650 -0.663871 1.884721 -0.000000 0.000000 -0.000000 -0.484694 0.127473 1.198354 102.194014 -122.835857 57.510377 0.814390 -0.474094 2.098158 -0.000000 0.000000 -0.000000 0.480958 0.301238 1.238259 9.796066 69.596404 60.294034 
